<svg width="664" height="193" viewBox="0 0 664 193" fill="none" xmlns="http://www.w3.org/2000/svg">
<path d="M5.48438 121V74.3125C5.85938 68.5938 8.25 63.1562 12.6562 58C18.1875 51.9062 25.0781 48.8594 33.3281 48.8594V60.9531C27.7031 61.0469 23.3906 63.4844 20.3906 68.2656C18.7031 70.9844 17.8594 73.75 17.8594 76.5625V121C17.8594 127.375 21.1406 132.062 27.7031 135.062C29.9531 136.094 31.8281 136.609 33.3281 136.609V148.703C27.7031 148.703 22.1719 146.734 16.7344 142.797C9.32812 137.359 5.57812 130.094 5.48438 121ZM40.2188 148.703V136.609C43.0312 136.609 46.0781 135.016 49.3594 131.828C52.5469 128.547 54.1875 125.031 54.2812 121.281V109.75H40.2188V98.3594H66.6562V123.25C66.6562 128.969 63.75 134.641 57.9375 140.266C52.0312 145.797 46.125 148.609 40.2188 148.703ZM40.2188 60.9531V48.8594C47.3438 48.7656 53.7188 51.7656 59.3438 57.8594C64.2188 63.2969 66.6562 69.1562 66.6562 75.4375L54.7031 79.7969C54.7031 79.7031 54.7031 79.5625 54.7031 79.375C54.7031 79.1875 54.7031 79 54.7031 78.8125C54.7031 78.5312 54.6562 78.25 54.5625 77.9688C54.5625 77.6875 54.5625 77.4062 54.5625 77.125C54.5625 76.8438 54.5625 76.6094 54.5625 76.4219V76.1406C54.0938 69.5781 51 64.9375 45.2812 62.2188C43.5 61.4687 41.8125 61.0469 40.2188 60.9531ZM77.2031 127.188V92.4531C77.2031 88.0469 79.1719 83.7344 83.1094 79.5156C87.9844 74.4531 94.0781 71.9219 101.391 71.9219V83.3125C95.8594 83.3125 92.0156 85.6094 89.8594 90.2031C89.2031 91.6094 88.875 93.0156 88.875 94.4219V125.359C88.875 128.828 90.4688 131.781 93.6562 134.219C95.9062 135.906 98.4844 136.75 101.391 136.75V148.141C92.4844 148.141 85.5938 144.531 80.7188 137.312C78.375 133.75 77.2031 130.375 77.2031 127.188ZM107.438 148.141V136.75C112.406 136.75 115.969 134.5 118.125 130C118.875 128.5 119.25 127.047 119.25 125.641V94.4219C119.25 90.5781 117.609 87.5312 114.328 85.2812C112.266 83.9688 109.922 83.3125 107.297 83.3125V71.9219C115.922 71.9219 122.578 75.4375 127.266 82.4688C129.609 85.9375 130.781 89.2656 130.781 92.4531V127.188C130.781 131.781 128.812 136.234 124.875 140.547C120.281 145.516 114.469 148.047 107.438 148.141ZM142.453 112.281V101.031H186.891V112.281H142.453ZM218.25 148V136.609H228.797C234.141 136.609 237.797 134.547 239.766 130.422C240.328 129.203 240.609 128.031 240.609 126.906V93.0156C240.609 90.3906 239.203 88.0469 236.391 85.9844C234.047 84.2031 231.234 83.3125 227.953 83.3125H217.688V71.9219H227.953C237.047 71.9219 243.984 75.4844 248.766 82.6094C251.109 86.0781 252.281 89.4062 252.281 92.5938V127.328C252.281 131.922 250.312 136.328 246.375 140.547C241.688 145.516 235.781 148 228.656 148H218.25ZM198.703 174.719V71.9219H211.078V174.719H198.703ZM263.25 127.188V92.4531C263.25 88.0469 265.219 83.7344 269.156 79.5156C274.031 74.4531 280.125 71.9219 287.438 71.9219V83.3125C281.906 83.3125 278.062 85.6094 275.906 90.2031C275.25 91.6094 274.922 93.0156 274.922 94.4219V125.359C274.922 128.828 276.516 131.781 279.703 134.219C281.953 135.906 284.531 136.75 287.438 136.75V148.141C278.531 148.141 271.641 144.531 266.766 137.312C264.422 133.75 263.25 130.375 263.25 127.188ZM293.484 148.141V136.75C298.453 136.75 302.016 134.5 304.172 130C304.922 128.5 305.297 127.047 305.297 125.641V94.4219C305.297 90.5781 303.656 87.5312 300.375 85.2812C298.312 83.9688 295.969 83.3125 293.344 83.3125V71.9219C301.969 71.9219 308.625 75.4375 313.312 82.4688C315.656 85.9375 316.828 89.2656 316.828 92.4531V127.188C316.828 131.781 314.859 136.234 310.922 140.547C306.328 145.516 300.516 148.047 293.484 148.141ZM324.984 128.031L336.094 125.922C336.094 130.141 338.297 133.469 342.703 135.906C344.859 136.938 346.922 137.5 348.891 137.594V148.703C339.797 148.703 333 145.422 328.5 138.859C326.156 135.391 324.984 131.781 324.984 128.031ZM325.688 93.4375C325.688 84.9062 329.578 78.5781 337.359 74.4531C341.109 72.4844 344.859 71.5 348.609 71.5V82.4688C344.297 82.4688 340.969 84.25 338.625 87.8125C337.406 89.5938 336.797 91.4688 336.797 93.4375C336.797 96.4375 339.141 98.875 343.828 100.75C347.391 102.25 354.281 104.219 364.5 106.656C370.875 107.969 375.422 111.109 378.141 116.078C379.547 118.703 380.25 121.656 380.25 124.938C380.25 133.938 376.641 140.594 369.422 144.906C365.203 147.438 360.375 148.703 354.938 148.703V137.594C359.25 137.594 362.859 136.094 365.766 133.094C367.828 130.938 368.859 128.406 368.859 125.5C368.859 121.75 365.156 118.75 357.75 116.5C355.875 115.938 352.875 115.141 348.75 114.109C344.344 113.078 341.156 112.234 339.188 111.578C332.062 108.766 327.75 104.5 326.25 98.7812C325.875 97.0938 325.688 95.3125 325.688 93.4375ZM354.797 82.6094V71.5C362.859 71.5 369.375 74.5 374.344 80.5C377.438 84.3438 378.984 88.375 378.984 92.5938L367.875 94.4219C367.875 89.2656 365.062 85.6562 359.438 83.5938C357.75 82.9375 356.203 82.6094 354.797 82.6094ZM385.453 84.1562V72.7656H394.734V48.4375H406.688V72.7656H415.688V84.2969H406.688V124.656C406.688 131.312 409.406 135.016 414.844 135.766C415.875 135.953 416.906 136.047 417.938 136.047H419.906L422.578 148H417.516C405.984 147.906 398.906 143.594 396.281 135.062C395.344 131.875 394.875 127.938 394.875 123.25L394.734 84.1562H385.453ZM426.797 174.016L429.75 163.047H456.188C461.438 162.859 465.281 160.797 467.719 156.859C468.469 155.547 468.844 154.375 468.844 153.344V143.219C465 145.938 461.156 147.391 457.312 147.578V136.75C461.438 136.75 464.719 135.016 467.156 131.547C468.281 129.953 468.844 128.359 468.844 126.766V92.3125C468.844 88.75 466.875 85.9375 462.938 83.875C461.062 82.9375 459.188 82.4688 457.312 82.4688V71.3594C461.531 71.3594 465.234 72.6719 468.422 75.2969C468.609 75.3906 468.75 75.4844 468.844 75.5781V71.3594H480.234V153.344C480.234 157.375 478.406 161.547 474.75 165.859C470.156 171.203 464.484 173.922 457.734 174.016H426.797ZM428.203 126.906V91.75C428.297 87.3438 430.266 83.0312 434.109 78.8125C438.703 73.9375 444.375 71.4531 451.125 71.3594V82.4688C446.531 82.4688 443.062 84.4375 440.719 88.375C439.875 89.7812 439.453 91.0469 439.453 92.1719V126.766C439.453 129.578 440.906 132.062 443.812 134.219C445.969 135.719 448.406 136.469 451.125 136.469V147.578C442.5 147.484 435.938 143.828 431.438 136.609C429.281 133.141 428.203 129.906 428.203 126.906ZM491.625 148V71.9219H503.578V82.3281C506.016 78.2031 509.672 75.1562 514.547 73.1875C517.172 72.1562 519.75 71.6406 522.281 71.6406H524.812L522 83.1719C516.844 83.2656 512.25 86.0312 508.219 91.4688C505.125 95.7812 503.578 100.234 503.578 104.828V148H491.625ZM532.406 127.188V92.3125C532.5 88 534.562 83.7344 538.594 79.5156C543.469 74.5469 549.375 72.0156 556.312 71.9219V83.0312C551.812 83.0312 548.297 85 545.766 88.9375C544.734 90.625 544.219 92.1719 544.219 93.5781V103.141H575.719V93.5781C575.719 89.3594 573.562 86.2656 569.25 84.2969C567.281 83.3594 565.266 82.8906 563.203 82.8906V71.9219C569.672 71.9219 575.438 74.2188 580.5 78.8125C584.719 82.8438 586.875 87.2969 586.969 92.1719V114.531H544.219V127.188C544.219 129.812 545.719 132.25 548.719 134.5C551.156 136.188 553.734 137.031 556.453 137.031V148C547.922 148 541.219 144.531 536.344 137.594C533.719 133.938 532.406 130.469 532.406 127.188ZM563.203 148V136.891C568.828 136.891 573.047 134.453 575.859 129.578C576.422 128.547 576.844 127.562 577.125 126.625L587.109 130.281C585.422 136.75 581.578 141.625 575.578 144.906C571.734 146.969 567.609 148 563.203 148ZM595.547 128.031L606.656 125.922C606.656 130.141 608.859 133.469 613.266 135.906C615.422 136.938 617.484 137.5 619.453 137.594V148.703C610.359 148.703 603.562 145.422 599.062 138.859C596.719 135.391 595.547 131.781 595.547 128.031ZM596.25 93.4375C596.25 84.9062 600.141 78.5781 607.922 74.4531C611.672 72.4844 615.422 71.5 619.172 71.5V82.4688C614.859 82.4688 611.531 84.25 609.188 87.8125C607.969 89.5938 607.359 91.4688 607.359 93.4375C607.359 96.4375 609.703 98.875 614.391 100.75C617.953 102.25 624.844 104.219 635.062 106.656C641.438 107.969 645.984 111.109 648.703 116.078C650.109 118.703 650.812 121.656 650.812 124.938C650.812 133.938 647.203 140.594 639.984 144.906C635.766 147.438 630.938 148.703 625.5 148.703V137.594C629.812 137.594 633.422 136.094 636.328 133.094C638.391 130.938 639.422 128.406 639.422 125.5C639.422 121.75 635.719 118.75 628.312 116.5C626.438 115.938 623.438 115.141 619.312 114.109C614.906 113.078 611.719 112.234 609.75 111.578C602.625 108.766 598.312 104.5 596.812 98.7812C596.438 97.0938 596.25 95.3125 596.25 93.4375ZM625.359 82.6094V71.5C633.422 71.5 639.938 74.5 644.906 80.5C648 84.3438 649.547 88.375 649.547 92.5938L638.438 94.4219C638.438 89.2656 635.625 85.6562 630 83.5938C628.312 82.9375 626.766 82.6094 625.359 82.6094Z" fill="#336791"/>
<rect x="71" y="160" width="363" height="2" fill="#737373"/>
</svg>
