<svg width="402" height="560" viewBox="0 0 402 560" fill="none" xmlns="http://www.w3.org/2000/svg">
<path fill-rule="evenodd" clip-rule="evenodd" d="M10.634 300.493C11.398 316.244 27.133 308.956 34.26 304.032C41.025 299.357 43.003 303.243 43.597 294.017C43.986 287.953 44.685 281.889 44.341 275.801C34.111 274.874 22.984 277.31 14.597 283.403C10.277 286.542 2.177 296.561 10.634 300.493Z" fill="#F6D2A2" stroke="black" stroke-width="3" stroke-linecap="round"/>
<path fill-rule="evenodd" clip-rule="evenodd" d="M10.634 300.493C12.924 299.641 15.351 299.036 16.905 296.965Z" fill="#C6B198"/>
<path d="M10.634 300.493C12.924 299.641 15.351 299.036 16.905 296.965" stroke="black" stroke-width="3" stroke-linecap="round"/>
<path fill-rule="evenodd" clip-rule="evenodd" d="M46.997 112.853C-13.3 95.897 31.536 19.189 79.956 50.74L46.997 112.853Z" fill="#336791" stroke="black" stroke-width="3" stroke-linecap="round"/>
<path fill-rule="evenodd" clip-rule="evenodd" d="M314.895 44.984C362.622 11.461 405.751 87.095 350.283 106.125L314.895 44.984Z" fill="#336791" stroke="black" stroke-width="3" stroke-linecap="round"/>
<path fill-rule="evenodd" clip-rule="evenodd" d="M325.161 494.343C337.284 501.844 359.443 524.525 341.257 535.523C323.783 551.522 314.003 517.962 298.666 513.312C305.271 504.342 313.643 496.163 325.161 494.343Z" fill="#F6D2A2" stroke="black" stroke-width="3" stroke-linecap="round"/>
<path d="M341.257 535.522C338.561 530.161 337.656 523.904 333.155 519.583" stroke="black" stroke-width="3" stroke-linecap="round"/>
<path fill-rule="evenodd" clip-rule="evenodd" d="M108.579 519.975C94.35 522.177 86.341 535.014 74.479 541.533C63.301 548.198 59.025 539.399 58.018 537.613C56.266 536.814 56.413 538.357 53.709 535.634C43.347 519.28 64.506 507.326 75.524 499.202C90.87 496.1 100.487 509.404 108.579 519.975Z" fill="#F6D2A2" stroke="black" stroke-width="3" stroke-linecap="round"/>
<path d="M58.019 537.612C58.561 531.379 63.503 527.205 65.857 521.935" stroke="black" stroke-width="3" stroke-linecap="round"/>
<path fill-rule="evenodd" clip-rule="evenodd" d="M49.513 91.667C41.558 87.459 35.722 81.744 40.588 72.543C45.093 64.025 53.462 64.95 61.418 69.158L49.513 91.667Z" fill="black"/>
<path fill-rule="evenodd" clip-rule="evenodd" d="M337.716 83.667C345.671 79.459 351.507 73.744 346.641 64.543C342.136 56.025 333.767 56.95 325.811 61.158L337.716 83.667Z" fill="black"/>
<path fill-rule="evenodd" clip-rule="evenodd" d="M392.475 298.493C391.711 314.244 375.976 306.956 368.849 302.032C362.084 297.357 360.106 301.243 359.512 292.017C359.123 285.953 358.424 279.889 358.768 273.801C368.998 272.874 380.125 275.31 388.512 281.403C392.831 284.542 400.932 294.561 392.475 298.493Z" fill="#F6D2A2" stroke="black" stroke-width="3" stroke-linecap="round"/>
<path fill-rule="evenodd" clip-rule="evenodd" d="M392.475 298.493C390.185 297.641 387.758 297.036 386.204 294.965Z" fill="#C6B198"/>
<path d="M392.475 298.493C390.185 297.641 387.758 297.036 386.204 294.965" stroke="black" stroke-width="3" stroke-linecap="round"/>
<path fill-rule="evenodd" clip-rule="evenodd" d="M195.512 13.124C255.877 13.124 312.465 21.757 341.964 79.753C368.442 144.759 359.026 214.857 363.064 283.559C366.532 342.551 374.221 410.704 346.854 465.371C318.064 522.885 246.124 537.353 186.854 535.234C140.299 533.568 84.06 518.38 57.785 475.845C26.959 425.945 41.553 351.747 43.792 296.223C46.444 230.452 25.977 164.481 47.584 100.122C69.999 33.359 130.451 18.271 195.512 13.124Z" fill="#336791" stroke="black" stroke-width="3" stroke-linecap="round"/>
<path fill-rule="evenodd" clip-rule="evenodd" d="M206.169 94.16C217.007 157.163 319.991 140.505 305.199 76.963C291.935 19.983 202.567 35.755 206.169 94.16Z" fill="white" stroke="black" stroke-width="2.9081" stroke-linecap="round"/>
<path fill-rule="evenodd" clip-rule="evenodd" d="M83.103 104.35C97.15 159.2 184.967 145.157 181.657 90.137C177.691 24.242 69.673 36.957 83.103 104.35Z" fill="white" stroke="black" stroke-width="2.8214" stroke-linecap="round"/>
<path fill-rule="evenodd" clip-rule="evenodd" d="M218.594 169.762C218.64 177.953 220.455 187.149 218.906 195.863C216.815 199.815 212.713 200.233 209.177 201.83C204.287 201.063 200.175 197.852 198.214 193.278C196.959 183.332 198.682 173.702 198.999 163.752L218.594 169.762Z" fill="white" stroke="black" stroke-width="3" stroke-linecap="round"/>
<path d="M107.324 111.466C115.514 111.466 122.153 104.275 122.153 95.404C122.153 86.5332 115.514 79.342 107.324 79.342C99.1342 79.342 92.495 86.5332 92.495 95.404C92.495 104.275 99.1342 111.466 107.324 111.466Z" fill="black"/>
<path d="M114.069 103.111C116 103.111 117.565 101.283 117.565 99.029C117.565 96.7746 116 94.947 114.069 94.947C112.138 94.947 110.573 96.7746 110.573 99.029C110.573 101.283 112.138 103.111 114.069 103.111Z" fill="white"/>
<path d="M231.571 107.466C239.624 107.466 246.153 100.275 246.153 91.404C246.153 82.5332 239.624 75.342 231.571 75.342C223.518 75.342 216.989 82.5332 216.989 91.404C216.989 100.275 223.518 107.466 231.571 107.466Z" fill="black"/>
<path d="M238.204 99.111C240.103 99.111 241.642 97.2834 241.642 95.029C241.642 92.7746 240.103 90.947 238.204 90.947C236.305 90.947 234.766 92.7746 234.766 95.029C234.766 97.2834 236.305 99.111 238.204 99.111Z" fill="white"/>
<path fill-rule="evenodd" clip-rule="evenodd" d="M176.217 168.87C169.747 184.55 179.825 215.905 197.38 192.778C196.125 182.832 197.848 173.202 198.165 163.252L176.217 168.87Z" fill="white" stroke="black" stroke-width="3" stroke-linecap="round"/>
<path fill-rule="evenodd" clip-rule="evenodd" d="M178.431 138.673C166.372 139.701 156.515 154.039 162.785 165.382C171.088 180.406 189.621 164.053 201.164 165.585C214.449 165.857 225.334 179.632 236.004 168.075C247.871 155.221 230.895 142.702 217.627 137.105L178.431 138.673Z" fill="#F6D2A2" stroke="#231F20" stroke-width="3" stroke-linecap="round"/>
<path fill-rule="evenodd" clip-rule="evenodd" d="M176.913 138.045C176.02 117.154 215.851 114.542 220.555 132.029C225.247 149.475 178.874 153.527 176.913 138.045C176.913 138.045 175.348 125.682 176.913 138.045Z" fill="black"/>
</svg>
